<?xml version="1.0" encoding="UTF-8" standalone="no"?>
<!-- Created with Inkscape (http://www.inkscape.org/) -->

<svg
   xmlns:dc="http://purl.org/dc/elements/1.1/"
   xmlns:cc="http://creativecommons.org/ns#"
   xmlns:rdf="http://www.w3.org/1999/02/22-rdf-syntax-ns#"
   xmlns:svg="http://www.w3.org/2000/svg"
   xmlns="http://www.w3.org/2000/svg"
   xmlns:sodipodi="http://sodipodi.sourceforge.net/DTD/sodipodi-0.dtd"
   xmlns:inkscape="http://www.inkscape.org/namespaces/inkscape"
   version="1.1"
   id="svg3936"
   width="682.66669"
   height="682.66669"
   viewBox="0 0 682.66669 682.66669"
   sodipodi:docname="EPP_logo_no_text-512x512.svg"
   inkscape:version="0.92.3 (2405546, 2018-03-11)">
  <metadata
     id="metadata3942">
    <rdf:RDF>
      <cc:Work
         rdf:about="">
        <dc:format>image/svg+xml</dc:format>
        <dc:type
           rdf:resource="http://purl.org/dc/dcmitype/StillImage" />
        <dc:title></dc:title>
      </cc:Work>
    </rdf:RDF>
  </metadata>
  <defs
     id="defs3940" />
  <sodipodi:namedview
     pagecolor="#ffffff"
     bordercolor="#666666"
     borderopacity="1"
     objecttolerance="10"
     gridtolerance="10"
     guidetolerance="10"
     inkscape:pageopacity="0"
     inkscape:pageshadow="2"
     inkscape:window-width="1078"
     inkscape:window-height="804"
     id="namedview3938"
     showgrid="false"
     inkscape:zoom="0.69140623"
     inkscape:cx="567.07098"
     inkscape:cy="337.35715"
     inkscape:window-x="200"
     inkscape:window-y="153"
     inkscape:window-maximized="0"
     inkscape:current-layer="svg3936" />
  <g
     id="g3965"
     transform="translate(0.02460516,-2.9882813e-6)">
    <path
       style="fill:#fefefe;stroke-width:1.33333337"
       d="M 0,341.33334 V 0 H 341.33334 682.66669 V 341.33334 682.66669 H 341.33334 0 Z"
       id="path3981"
       inkscape:connector-curvature="0" />
    <path
       style="fill:#e3d7f6;stroke-width:1.33333337"
       d="m 171.33334,634.15146 -56,-32.39513 L 114.9875,537.18067 114.64166,472.605 57.654165,439.71811 0.66666669,406.8312 0.3227668,339.74894 -0.02113308,272.66668 55.656102,240.51157 l 55.677238,-32.1551 0.34571,-66.05279 0.3457,-66.05278 56.76194,-32.792116 c 31.21905,-18.035664 57.34876,-32.792117 58.06601,-32.792117 0.71724,0 26.8748,14.778137 58.1279,32.840302 43.55486,25.171752 57.31368,32.540366 58.92161,31.555828 1.15379,-0.706461 26.26348,-15.2331 55.79932,-32.281421 l 53.70154,-30.996947 57.29847,33.087954 57.29848,33.087953 v 64.777934 64.77794 l 3.95789,1.90856 c 2.17686,1.04972 27.95419,15.70857 57.28298,32.57524 l 53.32507,30.66667 0.0504,66.71282 0.0504,66.71282 -55.66667,32.12927 -55.66667,32.12927 -0.34573,65.21441 -0.34574,65.21442 -57.38793,33.127 c -49.70924,28.69449 -57.78036,32.94497 -60.32092,31.76665 -1.61323,-0.74817 -26.93309,-15.25046 -56.26642,-32.22729 -30.65793,-17.74344 -54.30087,-30.62438 -55.60902,-30.2964 -1.25162,0.31381 -26.79337,14.73352 -56.75944,32.0438 -29.96606,17.31028 -55.04201,31.44621 -55.72432,31.41319 -0.68231,-0.033 -26.44056,-14.63786 -57.24056,-32.45518 z"
       id="path3979"
       inkscape:connector-curvature="0" />
    <path
       style="fill:#ccb3f7;stroke-width:1.33333337"
       d="m 171.65797,633.8057 -56.9913,-32.86099 V 536.62034 472.29595 L 57.333335,439.20966 0,406.12336 0.05039916,339.39501 0.10079834,272.66668 55.994485,240.66667 l 55.893685,-32 0.0559,-65.57588 0.0559,-65.57587 3.66667,-2.562396 c 2.01667,-1.409319 27.79051,-16.485285 57.27522,-33.502147 48.85102,-28.193991 53.87993,-30.796582 56.66666,-29.326529 1.68196,0.88727 26.23277,15.000908 54.55733,31.363637 28.32457,16.362732 53.00114,30.434747 54.83684,31.271146 3.06497,1.396496 7.87377,-1.10088 58.86563,-30.570963 l 55.528,-32.091688 57.2562,32.952011 57.25622,32.952012 0.0621,64.666667 0.0621,64.66667 56.98348,32.8644 56.98349,32.86439 0.29438,66.46895 0.29439,66.46893 -56.61527,32.51767 -56.61525,32.51766 -0.3458,65.28021 -0.34576,65.2802 -55.33334,32.00346 c -30.43333,17.60189 -56.01433,32.28057 -56.84667,32.61928 -0.83233,0.33871 -26.63233,-13.91527 -57.33333,-31.67549 -30.701,-17.76023 -56.42646,-32.29795 -57.1677,-32.30605 -0.74123,-0.008 -26.46091,14.4853 -57.15485,32.20751 -30.69395,17.72223 -55.89142,32.22223 -55.99437,32.22223 -0.10293,0 -25.83325,-14.78744 -57.17846,-32.86099 z"
       id="path3977"
       inkscape:connector-curvature="0" />
    <path
       style="fill:#b187fd;stroke-width:1.33333337"
       d="m 171.69998,633.51235 -56.96669,-32.84566 -0.0333,-64.90225 c -0.0272,-53.05694 -0.35874,-64.9809 -1.81638,-65.33333 -0.98069,-0.23709 -26.771658,-14.83109 -57.313267,-32.4311 l -55.53019843,-32 L 0.35340064,339.4686 0.66666669,272.9372 56.666669,240.57989 112.66667,208.22258 113.33334,142.1054 114,75.988225 170.43255,43.389643 226.8651,10.791061 l 55.56746,32.0928 c 30.56209,17.651041 56.23665,32.629466 57.05457,33.285388 0.96288,0.772178 21.0333,-10.093075 56.93411,-30.821663 30.49584,-17.60784 56.22663,-31.992915 57.17955,-31.966838 0.95291,0.02608 26.93256,14.615722 57.73256,32.421431 l 56,32.374013 0.34594,64.771208 0.34593,64.77121 57.33303,33.08612 57.33301,33.08612 -0.34561,65.86159 -0.34563,65.86157 -56,32.31464 -56,32.31463 -0.66667,65.53754 -0.66666,65.53752 -56.54127,32.6098 c -49.28768,28.42636 -56.89944,32.42112 -59.33334,31.13898 -1.53564,-0.80895 -25.89207,-14.79664 -54.1254,-31.08375 -28.23333,-16.28712 -52.66265,-30.30632 -54.28737,-31.15379 -2.64243,-1.37832 -8.83121,1.85304 -58.66667,30.63173 -30.64195,17.69494 -56.01263,32.33554 -56.3793,32.53466 -0.36667,0.19913 -26.30168,-14.41849 -57.63336,-32.48362 z"
       id="path3975"
       inkscape:connector-curvature="0" />
    <path
       style="fill:#fdfd00;stroke-width:1.33333337"
       d="m 398.33335,633.61677 -57.00001,-32.90283 v -64.18621 -64.18621 l -56.33333,-32.3939 c -30.98333,-17.81666 -56.80256,-32.64079 -57.37607,-32.94253 -0.57351,-0.30174 -25.77351,13.73715 -56,31.19754 -30.2265,17.46039 -56.15727,31.74464 -57.62394,31.74279 -1.46666,-0.002 -27.69526,-14.39035 -58.285767,-31.97441 L 0.09512924,406.00001 0.38089796,339.55374 0.66666669,273.10748 56.000002,241.09215 c 30.433334,-17.60842 56.014338,-32.29532 56.846668,-32.63754 0.83233,-0.34223 26.48609,13.81549 57.00836,31.46158 30.52228,17.6461 56.24128,32.06457 57.15335,32.04105 0.91205,-0.0236 26.2583,-14.28372 56.32496,-31.68934 l 54.66667,-31.64655 0.66667,-65.08764 0.66666,-65.087642 56.57975,-32.647438 c 31.11886,-17.95609 57.51886,-32.380163 58.66667,-32.053494 1.1478,0.32667 26.98692,14.998585 57.42026,32.604258 l 55.33333,32.010313 0.34567,65.954853 0.34567,65.95487 -56.63034,32.53195 -56.63033,32.53196 -0.0487,63.50222 -0.0487,63.50223 57.33334,33.08833 57.33333,33.08834 v 66.12312 66.12313 l -53,30.55834 c -29.15,16.80709 -54.8,31.60284 -57,32.87944 l -4,2.32109 z"
       id="path3973"
       inkscape:connector-curvature="0" />
    <path
       style="fill:#926cd8;stroke-width:1.33333337"
       d="m 398.35779,633.63086 -56.97558,-32.88872 -0.35776,-65.00643 -0.35777,-65.00641 56,-32.29311 c 30.8,-17.76122 56.6,-33.07172 57.33334,-34.02335 1.03329,-1.34088 14.15992,5.67732 58.33333,31.18815 l 57,32.9184 v 66.12065 66.12067 l -53,30.55834 c -29.15,16.80709 -54.8,31.60284 -57,32.87944 l -4,2.32109 z M 56.379645,438.36064 0.09261855,406.00001 0.37964263,339.55374 0.66666669,273.10748 56.000002,241.09215 c 30.433334,-17.60842 56.014338,-32.29532 56.846668,-32.63754 0.83233,-0.34223 26.48609,13.81549 57.00836,31.46158 30.52228,17.6461 55.94128,32.08367 56.48668,32.0835 0.54539,-1.7e-4 0.8305,29.77493 0.63356,66.16691 -0.28084,51.89416 0.007,66.61787 1.33334,68.25627 1.36978,1.69181 1.36636,1.89361 -0.018,1.06132 -1.08008,-0.64935 -21.87054,10.60588 -56.47148,30.57168 -30.11914,17.37965 -55.74991,31.83924 -56.95726,32.13239 -1.20736,0.29316 -27.524362,-14.02927 -58.482225,-31.82762 z M 452.60399,273.98092 c -1.69396,-2.45559 -112.40027,-66.26437 -113.63805,-65.49857 -0.53126,0.3287 -0.66593,-28.79509 -0.29926,-64.71952 l 0.66666,-65.317135 56.57975,-32.647251 c 31.11886,-17.955988 57.51886,-32.379977 58.66667,-32.053308 1.1478,0.32667 26.98692,14.998585 57.42026,32.604258 l 55.33333,32.010313 0.34567,65.947643 0.34565,65.94766 -56.34565,32.41909 c -30.99012,17.83052 -56.67388,32.58328 -57.07503,32.78394 -0.40115,0.20065 -1.30115,-0.46406 -2,-1.47712 z"
       id="path3971"
       inkscape:connector-curvature="0" />
    <path
       style="fill:#c9b953;stroke-width:1.33333337"
       d="m 399.33335,633.77915 c -30.8,-17.80601 -56.44,-32.5406 -56.97778,-32.74352 -1.57404,-0.59394 -1.27824,-131.09157 0.29627,-130.70228 0.74149,0.18333 1.34817,-0.13771 1.34817,-0.71343 0,-0.57573 3.42922,-2.82573 7.62047,-5 4.19127,-2.17428 8.43321,-4.70233 9.42657,-5.6179 0.99336,-0.91556 3.26415,-2.03062 5.0462,-2.47788 1.78206,-0.44727 3.2401,-1.25186 3.2401,-1.78798 0,-1.122 6.83522,-4.65074 8.33333,-4.30216 0.55,0.128 1,-0.23836 1,-0.81408 0,-0.57573 3.42921,-2.82573 7.62047,-5 4.19126,-2.17428 8.43321,-4.70233 9.42657,-5.6179 0.99336,-0.91557 3.26415,-2.03062 5.0462,-2.47789 1.78205,-0.44726 3.24009,-1.25185 3.24009,-1.78797 0,-1.122 6.83523,-4.65075 8.33334,-4.30216 0.55,0.128 1,-0.23836 1,-0.81408 0,-0.57573 3.45,-2.82573 7.66666,-5 4.21667,-2.17428 7.96667,-4.31341 8.33334,-4.75364 1.1593,-1.39185 7.29061,-4.44491 8.33333,-4.14953 0.55,0.1558 1,-0.22043 1,-0.83604 0,-1.06435 7.22902,-4.96076 7.42858,-4.00399 0.0524,0.25115 1.14524,-0.59337 2.42857,-1.87671 1.28333,-1.28333 3.22588,-2.33333 4.31679,-2.33333 1.09089,0 1.61262,-0.6 1.1594,-1.33333 -2.2703,-3.67342 7.06414,1.27593 58.66666,31.10648 l 56.00001,32.37265 0.3075,65.92711 0.30751,65.9271 -23.64084,13.5206 c -13.00247,7.43633 -38.64084,22.17092 -56.97418,32.74352 l -33.33333,19.22292 z M 56.666669,438.07699 0.66666669,405.63797 0.32103077,339.7384 -0.02460516,273.83882 56.221027,241.36386 C 87.156124,223.50263 113.11166,208.9057 113.9,208.92623 c 0.78833,0.0205 26.03334,14.30218 56.10001,31.73695 30.06666,17.43478 55.26666,31.71783 56,31.74012 0.87534,0.0265 1.21033,22.692 0.97526,65.98552 -0.2731,50.29602 0.028,66.45911 1.26903,68.11143 1.33035,1.77131 1.30615,1.88238 -0.13267,0.60898 -1.36972,-1.21223 -3.12881,-0.72147 -7.93569,2.21392 -13.25724,8.09572 -106.01865,61.33924 -106.74208,61.2682 -0.42198,-0.0414 -25.96719,-14.67291 -56.767191,-32.51436 z M 451.30175,272.43829 c -1.44929,-1.69256 -3.34221,-3.08359 -4.20649,-3.09116 -0.8643,-0.008 -2.49286,-0.93521 -3.61906,-2.0614 -1.12618,-1.1262 -2.51904,-2.1074 -3.09524,-2.18047 -2.37283,-0.30089 -7.04761,-2.94481 -7.04761,-3.98594 0,-0.61562 -0.45,-1.0146 -1,-0.88663 -1.40543,0.32703 -8.33334,-3.14705 -8.33334,-4.17885 0,-0.4683 -2.1,-1.61083 -4.66666,-2.53895 -2.56667,-0.92812 -4.66667,-2.24865 -4.66667,-2.93452 0,-0.68587 -0.85715,-1.24703 -1.90476,-1.24703 -1.04763,0 -2.82619,-0.92142 -3.95239,-2.04761 -1.12618,-1.1262 -2.21904,-1.97072 -2.42857,-1.87672 -0.98272,0.44089 -7.71428,-3.30234 -7.71428,-4.2897 0,-0.61561 -0.45,-0.99184 -1,-0.83604 -1.04272,0.29538 -7.17403,-2.75768 -8.33333,-4.14953 -0.36667,-0.44023 -4.11667,-2.57936 -8.33334,-4.75364 -4.21666,-2.17427 -7.66666,-4.42427 -7.66666,-5 0,-0.57572 -0.45,-0.94205 -1,-0.81408 -1.49811,0.34859 -8.33334,-3.18016 -8.33334,-4.30216 0,-0.53612 -1.45804,-1.34071 -3.24009,-1.78797 -1.78205,-0.44727 -4.06581,-1.56232 -5.07503,-2.47788 -1.00921,-0.91558 -4.80116,-3.23059 -8.42657,-5.1445 l -6.59164,-3.47982 -0.34582,-65.37274 c -0.31252,-59.079382 -0.13904,-65.452079 1.80206,-66.196946 1.18132,-0.453316 26.70003,-14.99423 56.70824,-32.313141 l 54.56038,-31.48893 27.63757,15.928767 c 15.20067,8.760821 40.66392,23.385387 56.585,32.499035 l 28.94743,16.570268 0.0525,66.205587 0.0525,66.20558 -37.00001,21.30736 c -20.35,11.71904 -45.71422,26.36756 -56.36493,32.55224 l -19.36495,11.24489 -2.63505,-3.07737 z"
       id="path3969"
       inkscape:connector-curvature="0" />
    <path
       style="fill:#7f59ca;stroke-width:1.33333337"
       d="m 398.38443,633.40575 -56.94892,-32.73906 -0.0511,-64.74987 -0.0511,-64.74988 56.33334,-32.45751 c 30.98333,-17.85164 56.72156,-33.04967 57.19607,-33.7734 0.48689,-0.7426 25.46424,12.88397 57.33333,31.27862 l 56.47061,32.5945 0.3075,65.92876 0.30751,65.92878 -23.64084,13.5206 c -13.00247,7.43633 -38.64084,22.16892 -56.97418,32.73908 l -33.33333,19.21845 z M 56.666669,438.07699 0.66666669,405.63797 0.32103077,339.7384 -0.02460516,273.83882 55.654366,241.69439 c 30.623434,-17.67944 56.374754,-32.34317 57.225154,-32.58608 0.8504,-0.24289 26.50582,13.9487 57.01205,31.53687 l 55.46586,31.97852 -0.34537,67.12019 -0.34539,67.1202 -55.22584,31.9013 c -30.3742,17.54571 -55.5742,31.86739 -55.99999,31.82596 -0.42579,-0.0414 -25.97417,-14.67291 -56.774171,-32.51436 z M 454.20395,273.66332 c -0.35585,-0.57578 -26.18438,-15.73556 -57.39674,-33.68843 l -56.74972,-32.64155 -0.0288,-64.85735 c -0.0259,-58.265283 0.18831,-64.940637 2.10666,-65.676774 1.17445,-0.450683 26.68754,-14.989442 56.69576,-32.308353 l 54.56043,-31.48893 27.63757,15.928767 c 15.20067,8.760821 40.66392,23.385387 56.585,32.499035 l 28.94743,16.570268 0.0525,66.184427 0.0525,66.18443 -55.00001,31.67731 c -30.25,17.42251 -55.40854,31.89931 -55.90786,32.17065 -0.49934,0.27135 -1.19902,0.0223 -1.55487,-0.5535 z"
       id="path3967"
       inkscape:connector-curvature="0" />
  </g>
</svg>
